<mxfile host="app.diagrams.net" modified="2020-08-28T06:46:44.622Z" agent="5.0 (Macintosh; Intel Mac OS X 10_13_6) AppleWebKit/537.36 (KHTML, like Gecko) Chrome/84.0.4147.135 Safari/537.36" etag="9Y9OCzR_GuZjenx6WAkS" version="13.6.5" type="github">
  <diagram id="Ym0Pg3qnOQolMI_Kacoh" name="Page-1">
    <mxGraphModel dx="892" dy="498" grid="1" gridSize="10" guides="1" tooltips="1" connect="1" arrows="1" fold="1" page="1" pageScale="1" pageWidth="827" pageHeight="1169" math="0" shadow="0">
      <root>
        <mxCell id="0" />
        <mxCell id="1" parent="0" />
        <mxCell id="t5YIatUfONlPQ1stTiuJ-1" value="永和C7P BOH" style="rounded=1;whiteSpace=wrap;html=1;" vertex="1" parent="1">
          <mxGeometry x="54" y="70" width="120" height="60" as="geometry" />
        </mxCell>
        <mxCell id="t5YIatUfONlPQ1stTiuJ-2" value="Oracle" style="shape=cylinder2;whiteSpace=wrap;html=1;boundedLbl=1;backgroundOutline=1;size=15;" vertex="1" parent="1">
          <mxGeometry x="84" y="190" width="60" height="80" as="geometry" />
        </mxCell>
        <mxCell id="t5YIatUfONlPQ1stTiuJ-3" value="" style="endArrow=classic;html=1;exitX=0.5;exitY=1;exitDx=0;exitDy=0;entryX=0.513;entryY=0.015;entryDx=0;entryDy=0;entryPerimeter=0;" edge="1" parent="1" source="t5YIatUfONlPQ1stTiuJ-1" target="t5YIatUfONlPQ1stTiuJ-2">
          <mxGeometry width="50" height="50" relative="1" as="geometry">
            <mxPoint x="344" y="280" as="sourcePoint" />
            <mxPoint x="394" y="230" as="targetPoint" />
          </mxGeometry>
        </mxCell>
        <mxCell id="t5YIatUfONlPQ1stTiuJ-4" value="basemember" style="rounded=1;whiteSpace=wrap;html=1;" vertex="1" parent="1">
          <mxGeometry x="264" y="70" width="120" height="60" as="geometry" />
        </mxCell>
        <mxCell id="t5YIatUfONlPQ1stTiuJ-5" value="MySQL" style="shape=cylinder2;whiteSpace=wrap;html=1;boundedLbl=1;backgroundOutline=1;size=15;" vertex="1" parent="1">
          <mxGeometry x="294" y="190" width="60" height="80" as="geometry" />
        </mxCell>
        <mxCell id="t5YIatUfONlPQ1stTiuJ-6" value="" style="endArrow=classic;html=1;exitX=0.5;exitY=1;exitDx=0;exitDy=0;" edge="1" parent="1" source="t5YIatUfONlPQ1stTiuJ-4" target="t5YIatUfONlPQ1stTiuJ-5">
          <mxGeometry width="50" height="50" relative="1" as="geometry">
            <mxPoint x="344" y="280" as="sourcePoint" />
            <mxPoint x="394" y="230" as="targetPoint" />
          </mxGeometry>
        </mxCell>
        <mxCell id="t5YIatUfONlPQ1stTiuJ-7" value="" style="endArrow=classic;html=1;exitX=1;exitY=0.5;exitDx=0;exitDy=0;entryX=0;entryY=0.5;entryDx=0;entryDy=0;" edge="1" parent="1" source="t5YIatUfONlPQ1stTiuJ-1" target="t5YIatUfONlPQ1stTiuJ-4">
          <mxGeometry width="50" height="50" relative="1" as="geometry">
            <mxPoint x="344" y="270" as="sourcePoint" />
            <mxPoint x="394" y="220" as="targetPoint" />
          </mxGeometry>
        </mxCell>
        <mxCell id="t5YIatUfONlPQ1stTiuJ-8" value="dish-service" style="rounded=1;whiteSpace=wrap;html=1;" vertex="1" parent="1">
          <mxGeometry x="464" y="70" width="120" height="60" as="geometry" />
        </mxCell>
        <mxCell id="t5YIatUfONlPQ1stTiuJ-9" value="域内PAAS" style="rounded=1;whiteSpace=wrap;html=1;" vertex="1" parent="1">
          <mxGeometry x="654" y="70" width="120" height="60" as="geometry" />
        </mxCell>
        <mxCell id="t5YIatUfONlPQ1stTiuJ-10" value="" style="endArrow=classic;html=1;exitX=1;exitY=0.5;exitDx=0;exitDy=0;entryX=0;entryY=0.5;entryDx=0;entryDy=0;" edge="1" parent="1" source="t5YIatUfONlPQ1stTiuJ-4" target="t5YIatUfONlPQ1stTiuJ-8">
          <mxGeometry width="50" height="50" relative="1" as="geometry">
            <mxPoint x="390" y="240" as="sourcePoint" />
            <mxPoint x="440" y="190" as="targetPoint" />
          </mxGeometry>
        </mxCell>
        <mxCell id="t5YIatUfONlPQ1stTiuJ-12" value="" style="endArrow=classic;html=1;entryX=0;entryY=0.5;entryDx=0;entryDy=0;exitX=1;exitY=0.5;exitDx=0;exitDy=0;" edge="1" parent="1" source="t5YIatUfONlPQ1stTiuJ-8" target="t5YIatUfONlPQ1stTiuJ-9">
          <mxGeometry width="50" height="50" relative="1" as="geometry">
            <mxPoint x="390" y="240" as="sourcePoint" />
            <mxPoint x="440" y="190" as="targetPoint" />
          </mxGeometry>
        </mxCell>
      </root>
    </mxGraphModel>
  </diagram>
</mxfile>
